<svg id="Layer_1" data-name="Layer 1" xmlns="http://www.w3.org/2000/svg" viewBox="0 0 142.57 31"><defs><style>.cls-1{fill:#fff;}</style></defs><title>logo</title><path class="cls-1" d="M21.43,6.18a21.32,21.32,0,0,1-4.35-.59l-1.3,6.16h4.53l-.5,2.3H15.28L12.77,25.71H8.3L12.77,5a3.62,3.62,0,0,0-3,1.48c-.69.94-1,2.59-1,4.94a3.9,3.9,0,0,0,.38,1.89.48.48,0,0,1,.06.21c-1.67,0-2.7-.53-3.12-1.59a5.5,5.5,0,0,1-.21-1.77,7.32,7.32,0,0,1,.57-2.65A6.75,6.75,0,0,1,8.27,4.94c1.87-1.66,4.59-2.48,8.16-2.48a16,16,0,0,1,2.33.19,21.38,21.38,0,0,0,2.88.18,8.9,8.9,0,0,0,2.72-.37l-.29,1A3.32,3.32,0,0,1,21.43,6.18Z" transform="translate(-5.85 -2.46)"/><path class="cls-1" d="M37.23,13.93a9.49,9.49,0,0,1-5.5,2.57,12.08,12.08,0,0,1-2.43,6.78,6.23,6.23,0,0,1-5,2.55q-3.57,0-4.6-2.64a5.53,5.53,0,0,1-.36-2,13.67,13.67,0,0,1,.19-2.28,15,15,0,0,1,.59-2.38A11.14,11.14,0,0,1,22.83,12a6.93,6.93,0,0,1,5-2.06q4,0,4,5v0a3,3,0,0,0,.51,0,5.93,5.93,0,0,0,2.15-.53A12.18,12.18,0,0,0,37,13.08Zm-8.07,2.66c-.56-.14-.83-.6-.83-1.37a1.61,1.61,0,0,1,1-1.61A3.31,3.31,0,0,0,29,12.22a1.07,1.07,0,0,0-1-.41c-1,0-1.86,1-2.72,3.14A14.84,14.84,0,0,0,24,20.53a3.93,3.93,0,0,0,.28,1.9,1.22,1.22,0,0,0,.57.51,2.61,2.61,0,0,0,.82.1c.7,0,1.41-.62,2.1-1.86A12.66,12.66,0,0,0,29.16,16.59Z" transform="translate(-5.85 -2.46)"/><path class="cls-1" d="M50.84,13.93a9.56,9.56,0,0,1-5.5,2.57,12,12,0,0,1-2.44,6.78,6.2,6.2,0,0,1-5,2.55c-2.38,0-3.92-.88-4.6-2.64a5.53,5.53,0,0,1-.37-2,14.82,14.82,0,0,1,.19-2.28,16.27,16.27,0,0,1,.6-2.38A11.14,11.14,0,0,1,36.44,12a6.92,6.92,0,0,1,5-2.06q4,0,4,5v0a3,3,0,0,0,.51,0,5.84,5.84,0,0,0,2.14-.53,11.67,11.67,0,0,0,2.46-1.33Zm-8.07,2.66c-.56-.14-.83-.6-.83-1.37a1.61,1.61,0,0,1,1-1.61,3.16,3.16,0,0,0-.31-1.39,1,1,0,0,0-1-.41c-.95,0-1.86,1-2.73,3.14a14.81,14.81,0,0,0-1.3,5.58,4.11,4.11,0,0,0,.27,1.9,1.28,1.28,0,0,0,.58.51,2.57,2.57,0,0,0,.82.1q1.05,0,2.1-1.86A12.66,12.66,0,0,0,42.77,16.59Z" transform="translate(-5.85 -2.46)"/><path class="cls-1" d="M60.78,22.89a2.55,2.55,0,0,0,1-.2,3.2,3.2,0,0,1-1.09,2.38,3.46,3.46,0,0,1-2.29.82,3.13,3.13,0,0,1-1.9-.46,3.47,3.47,0,0,1-1.35-2.12,5.53,5.53,0,0,1-4.56,2.58A3.62,3.62,0,0,1,47,23.24a6.37,6.37,0,0,1-.35-2.17,14.27,14.27,0,0,1,.21-2.44,14.63,14.63,0,0,1,.66-2.43,11.23,11.23,0,0,1,2.77-4.4,6,6,0,0,1,4.34-1.75,3.19,3.19,0,0,1,1.92.45,1.34,1.34,0,0,1,.59,1.13v.12l1.52-7.13L63.2,4,59.65,20.74a3,3,0,0,0-.14.91A1.11,1.11,0,0,0,60.78,22.89ZM51.2,20.64c0,1.5.51,2.25,1.54,2.25a2.26,2.26,0,0,0,1.38-.57,3.23,3.23,0,0,0,1.06-1.67l1.63-7.6A1.24,1.24,0,0,0,55.54,12a2.41,2.41,0,0,0-1.8.92,11.55,11.55,0,0,0-2.47,6.39A11.48,11.48,0,0,0,51.2,20.64Z" transform="translate(-5.85 -2.46)"/><path class="cls-1" d="M78.88,7.1a7.47,7.47,0,0,0,.06-.92.81.81,0,0,0-.35-.7,1.17,1.17,0,0,0-.71-.27,2,2,0,0,0-1.38.58,3.59,3.59,0,0,0-.9,2l-.53,2.46h2.27l-.23,1.24H74.83L71.25,28.19q-1.05,5.26-5.54,5.27a3.86,3.86,0,0,1-2.55-1,2.82,2.82,0,0,1-1.11-2.2,3.93,3.93,0,0,1,.43-2A3.86,3.86,0,0,1,63.63,27a14.38,14.38,0,0,1,3.75-1.58L71.13,7.75q1.11-5.26,5.65-5.26a3.81,3.81,0,0,1,2.54.93,3,3,0,0,1,1.11,2.41,8,8,0,0,1-.09,1.27ZM67.17,26.48a8.17,8.17,0,0,0-2.27,1.07,2.72,2.72,0,0,0-1.14,2.12,1,1,0,0,0,.74.94,1.77,1.77,0,0,0,.62.09,1.35,1.35,0,0,0,.87-.53,4.13,4.13,0,0,0,.77-1.89Z" transform="translate(-5.85 -2.46)"/><path class="cls-1" d="M94.2,13.93a9.49,9.49,0,0,1-5.49,2.57,12.15,12.15,0,0,1-2.44,6.78,6.22,6.22,0,0,1-5,2.55q-3.57,0-4.6-2.64a5.53,5.53,0,0,1-.36-2,13.67,13.67,0,0,1,.19-2.28,16.27,16.27,0,0,1,.6-2.38A11,11,0,0,1,79.81,12a6.89,6.89,0,0,1,5-2.06c2.66,0,4,1.65,4,5v0a3.1,3.1,0,0,0,.52,0,5.89,5.89,0,0,0,2.14-.53,12.18,12.18,0,0,0,2.46-1.33Zm-8.07,2.66c-.55-.14-.83-.6-.83-1.37a1.61,1.61,0,0,1,1-1.61A3.16,3.16,0,0,0,86,12.22a1.06,1.06,0,0,0-1-.41c-.94,0-1.85,1-2.72,3.14A14.81,14.81,0,0,0,81,20.53a4.11,4.11,0,0,0,.27,1.9,1.22,1.22,0,0,0,.57.51,2.65,2.65,0,0,0,.82.1c.71,0,1.41-.62,2.11-1.86A12.86,12.86,0,0,0,86.13,16.59Z" transform="translate(-5.85 -2.46)"/><path class="cls-1" d="M89.21,25.71l3.28-15.5H97l-.4,1.92a14.47,14.47,0,0,1,1.71-1.3,3.5,3.5,0,0,1,2-.62,1.92,1.92,0,0,1,1.63.71,2.28,2.28,0,0,1,.54,1.36,2.7,2.7,0,0,1-.6,1.82,1.85,1.85,0,0,1-1.44.69,1.32,1.32,0,0,1-1.12-.38,1.88,1.88,0,0,1-.34-.79,2.58,2.58,0,0,0-.16-.64.4.4,0,0,0-.41-.23,2.17,2.17,0,0,0-1.12.29,7.81,7.81,0,0,0-1.11.89L93.67,25.71Z" transform="translate(-5.85 -2.46)"/><path class="cls-1" d="M116.17,5A6.76,6.76,0,0,0,113,7.5a7.38,7.38,0,0,0-1.14,4.22,4,4,0,0,0,.35,1.89.46.46,0,0,1,.08.23c-1.66,0-2.69-.53-3.1-1.59a3.92,3.92,0,0,1-.22-1.42q0-3,3.5-5.57a12.6,12.6,0,0,1,7.39-2.5c.32,0,.73,0,1.24.07L116.3,25.09a10.76,10.76,0,0,1,2.68,1l2.26,1.23a11.69,11.69,0,0,0,5.47,1.72,6.53,6.53,0,0,0,2.61-.5,8.08,8.08,0,0,1-1.1,3.54,2.5,2.5,0,0,1-2.13,1.34q-2,0-4.73-2.12l-3.55-2.73a9.62,9.62,0,0,0-5.55-2.19h-.35l-.36,0Z" transform="translate(-5.85 -2.46)"/><path class="cls-1" d="M130.09,20.15q-2,5.75-6.67,5.74a3.18,3.18,0,0,1-2.2-.88,3.68,3.68,0,0,1-1-2.83,10.08,10.08,0,0,1,.24-2l2.1-9.94h4.47l-2.23,10.53a5.24,5.24,0,0,0-.12,1.11c0,.69.42,1,1.26,1a2.35,2.35,0,0,0,1.69-.79,4.38,4.38,0,0,0,1.11-2ZM128.17,6.09a2.3,2.3,0,0,1-.74,1.73,2.44,2.44,0,0,1-1.75.71,2.37,2.37,0,0,1-1.74-.72,2.34,2.34,0,0,1-.71-1.72,2.44,2.44,0,0,1,.71-1.75,2.31,2.31,0,0,1,1.74-.73,2.48,2.48,0,0,1,2.49,2.48Z" transform="translate(-5.85 -2.46)"/><path class="cls-1" d="M139.17,7.1a7.47,7.47,0,0,0,.06-.92.84.84,0,0,0-.35-.7,1.17,1.17,0,0,0-.71-.27,2,2,0,0,0-1.38.58,3.59,3.59,0,0,0-.9,2l-.53,2.46h2.27l-.23,1.24h-2.28l-3.58,16.74q-1,5.26-5.54,5.27a3.84,3.84,0,0,1-2.55-1,2.82,2.82,0,0,1-1.11-2.2A3.57,3.57,0,0,1,123.92,27a14.38,14.38,0,0,1,3.75-1.58l3.75-17.71q1.11-5.26,5.65-5.26a3.81,3.81,0,0,1,2.54.93,3,3,0,0,1,1.11,2.41,8,8,0,0,1-.09,1.27ZM127.46,26.48a8.17,8.17,0,0,0-2.27,1.07,2.72,2.72,0,0,0-1.14,2.12,1,1,0,0,0,.74.94,1.73,1.73,0,0,0,.62.09,1.35,1.35,0,0,0,.87-.53,4.13,4.13,0,0,0,.77-1.89Z" transform="translate(-5.85 -2.46)"/><path class="cls-1" d="M141.22,20.38c0,1.71.65,2.57,2,2.57a4.26,4.26,0,0,0,1.87-.5,7.69,7.69,0,0,0,1.75-1.15q-.83,4.59-5.36,4.59A5.13,5.13,0,0,1,138,24.75,4.79,4.79,0,0,1,136.63,21a14.21,14.21,0,0,1,1.8-6.86,8,8,0,0,1,3.75-3.6,6,6,0,0,1,2.55-.58,4,4,0,0,1,2.92.81,3,3,0,0,1,.77,2.16,5.74,5.74,0,0,1-2.13,4.51,8.18,8.18,0,0,1-5,2A5.45,5.45,0,0,0,141.22,20.38ZM146,12.69c0-.75-.26-1.12-.77-1.12-1,0-1.93,1.18-2.83,3.42a20.07,20.07,0,0,0-.93,3,4.31,4.31,0,0,0,3.16-1.62A5.34,5.34,0,0,0,146,12.69Z" transform="translate(-5.85 -2.46)"/></svg>